<?xml version="1.0" encoding="UTF-8" standalone="no"?>
<!-- Created with Inkscape (http://www.inkscape.org/) -->

<svg
   xmlns:dc="http://purl.org/dc/elements/1.1/"
   xmlns:cc="http://creativecommons.org/ns#"
   xmlns:rdf="http://www.w3.org/1999/02/22-rdf-syntax-ns#"
   xmlns:svg="http://www.w3.org/2000/svg"
   xmlns="http://www.w3.org/2000/svg"
   xmlns:sodipodi="http://sodipodi.sourceforge.net/DTD/sodipodi-0.dtd"
   xmlns:inkscape="http://www.inkscape.org/namespaces/inkscape"
   width="48"
   height="48"
   id="svg2"
   version="1.1"
   inkscape:version="0.48.1 r9760"
   sodipodi:docname="revelation-indicator-unlocked.svg">
  <defs
     id="defs4" />
  <sodipodi:namedview
     id="base"
     pagecolor="#ffffff"
     bordercolor="#666666"
     borderopacity="1.0"
     inkscape:pageopacity="0.0"
     inkscape:pageshadow="2"
     inkscape:zoom="11.2"
     inkscape:cx="11.515921"
     inkscape:cy="24.134711"
     inkscape:document-units="px"
     inkscape:current-layer="layer1"
     showgrid="false"
     inkscape:window-width="1366"
     inkscape:window-height="744"
     inkscape:window-x="0"
     inkscape:window-y="24"
     inkscape:window-maximized="1"
     inkscape:snap-global="false">
    <inkscape:grid
       type="xygrid"
       id="grid3841"
       empspacing="5"
       visible="true"
       enabled="true"
       snapvisiblegridlinesonly="true" />
  </sodipodi:namedview>
  <metadata
     id="metadata7">
    <rdf:RDF>
      <cc:Work
         rdf:about="">
        <dc:format>image/svg+xml</dc:format>
        <dc:type
           rdf:resource="http://purl.org/dc/dcmitype/StillImage" />
        <dc:title></dc:title>
      </cc:Work>
    </rdf:RDF>
  </metadata>
  <g
     inkscape:groupmode="layer"
     id="layer4"
     inkscape:label="background"
     sodipodi:insensitive="true"
     style="display:none">
    <rect
       style="color:#000000;fill:#2a42db;fill-opacity:1;fill-rule:nonzero;stroke:none;stroke-width:0.69999999;marker:none;visibility:visible;display:inline;overflow:visible;enable-background:accumulate"
       id="rect3923"
       width="49.107143"
       height="48.482143"
       x="-0.35714287"
       y="-0.21428584" />
  </g>
  <g
     inkscape:label="Layer 1"
     inkscape:groupmode="layer"
     id="layer1"
     transform="translate(0,-1004.3622)">
    <path
       inkscape:connector-curvature="0"
       style="fill:#dfdbd2;fill-opacity:1;stroke:none"
       d="m 14.737873,1009.181 c -3.248031,0 -5.8628727,2.6148 -5.8628727,5.8628 l 0,27.1368 c 0,3.248 2.6148417,5.8628 5.8628727,5.8628 l 18.202826,0 c 3.248031,0 5.862873,-2.6148 5.862873,-5.8628 l 0,-27.1368 c 0,-3.248 -2.614842,-5.8628 -5.862873,-5.8628 l -18.202826,0 z m 9.101413,5.0532 c 3.568381,0 6.44916,2.9087 6.44916,6.4771 0,3.5684 -2.880779,6.4491 -6.44916,6.4491 -3.568381,0 -6.44916,-2.8807 -6.44916,-6.4491 0,-3.5684 2.880779,-6.4771 6.44916,-6.4771 z"
       id="rect2985" />
    <path
       inkscape:connector-curvature="0"
       style="fill:#dfdbd2;fill-opacity:1;stroke:none"
       d="m 23.839286,1015.351 c -2.951624,0 -5.332423,2.4087 -5.332423,5.3603 0,2.9516 2.380799,5.3324 5.332423,5.3324 2.951624,0 5.332423,-2.3808 5.332423,-5.3324 0,-2.9516 -2.380799,-5.3603 -5.332423,-5.3603 z m 0,2.4847 c 1.585947,0 2.8756,1.2896 2.8756,2.8756 0,1.586 -1.289653,2.8477 -2.8756,2.8477 -1.585947,0 -2.8756,-1.2617 -2.8756,-2.8477 0,-1.586 1.289653,-2.8756 2.8756,-2.8756 z"
       id="path3755-0" />
    <rect
       style="color:#000000;fill:none;stroke:#ffffff;stroke-width:0.62537313;stroke-miterlimit:4;stroke-opacity:0;stroke-dasharray:none;marker:none;visibility:visible;display:inline;overflow:visible;enable-background:accumulate"
       id="rect3843"
       width="28.078009"
       height="36.772579"
       x="9.943862"
       y="1010.0026"
       ry="5.6235719" />
    <rect
       style="color:#000000;fill:none;stroke:#dfdbd2;stroke-width:1.72997689;stroke-miterlimit:4;stroke-opacity:1;stroke-dasharray:none;marker:none;visibility:visible;display:inline;overflow:visible;enable-background:accumulate"
       id="rect3954"
       width="32.670025"
       height="41.598595"
       x="7.5042739"
       y="1007.813"
       ry="7.2007275" />
  </g>
</svg>
