<?xml version="1.0" encoding="UTF-8" standalone="no"?>
<!-- Created with Inkscape (http://www.inkscape.org/) -->

<svg
   xmlns:dc="http://purl.org/dc/elements/1.1/"
   xmlns:cc="http://creativecommons.org/ns#"
   xmlns:rdf="http://www.w3.org/1999/02/22-rdf-syntax-ns#"
   xmlns:svg="http://www.w3.org/2000/svg"
   xmlns="http://www.w3.org/2000/svg"
   xmlns:sodipodi="http://sodipodi.sourceforge.net/DTD/sodipodi-0.dtd"
   xmlns:inkscape="http://www.inkscape.org/namespaces/inkscape"
   width="48"
   height="48"
   id="svg2"
   version="1.1"
   inkscape:version="0.48.1 r9760"
   sodipodi:docname="revelation-indicator-locked.svg">
  <defs
     id="defs4" />
  <sodipodi:namedview
     id="base"
     pagecolor="#ffffff"
     bordercolor="#666666"
     borderopacity="1.0"
     inkscape:pageopacity="0.0"
     inkscape:pageshadow="2"
     inkscape:zoom="7.919596"
     inkscape:cx="32.778319"
     inkscape:cy="23.055337"
     inkscape:document-units="px"
     inkscape:current-layer="layer1"
     showgrid="false"
     inkscape:window-width="1366"
     inkscape:window-height="744"
     inkscape:window-x="0"
     inkscape:window-y="24"
     inkscape:window-maximized="1"
     inkscape:snap-global="false">
    <inkscape:grid
       type="xygrid"
       id="grid3841"
       empspacing="5"
       visible="true"
       enabled="true"
       snapvisiblegridlinesonly="true" />
  </sodipodi:namedview>
  <metadata
     id="metadata7">
    <rdf:RDF>
      <cc:Work
         rdf:about="">
        <dc:format>image/svg+xml</dc:format>
        <dc:type
           rdf:resource="http://purl.org/dc/dcmitype/StillImage" />
        <dc:title></dc:title>
      </cc:Work>
    </rdf:RDF>
  </metadata>
  <g
     inkscape:groupmode="layer"
     id="layer4"
     inkscape:label="background"
     sodipodi:insensitive="true"
     style="display:none">
    <rect
       style="color:#000000;fill:#2a42db;fill-opacity:1;fill-rule:nonzero;stroke:none;stroke-width:0.69999999;marker:none;visibility:visible;display:inline;overflow:visible;enable-background:accumulate"
       id="rect3923"
       width="49.107143"
       height="48.482143"
       x="-0.35714287"
       y="-0.21428584" />
  </g>
  <g
     inkscape:label="Layer 1"
     inkscape:groupmode="layer"
     id="layer1"
     transform="translate(0,-1004.3622)">
    <path
       inkscape:connector-curvature="0"
       style="fill:#df382c;fill-opacity:1;stroke:none"
       d="m 15.582651,1010.9846 c -2.946554,0 -5.318691,2.3721 -5.318691,5.3186 l 0,24.618 c 0,2.9465 2.372137,5.3186 5.318691,5.3186 l 16.51327,0 c 2.946554,0 5.318691,-2.3721 5.318691,-5.3186 l 0,-24.618 c 0,-2.9465 -2.372137,-5.3186 -5.318691,-5.3186 l -16.51327,0 z m 8.256635,4.5841 c 3.23717,0 5.85056,2.6388 5.85056,5.8759 0,3.2372 -2.61339,5.8506 -5.85056,5.8506 -3.23717,0 -5.85056,-2.6134 -5.85056,-5.8506 0,-3.2371 2.61339,-5.8759 5.85056,-5.8759 z"
       id="rect2985" />
    <path
       inkscape:connector-curvature="0"
       style="fill:#df382c;fill-opacity:1;stroke:none"
       d="m 23.839286,1017.4681 c -2.188408,0 -3.953593,1.7858 -3.953593,3.9742 0,2.1884 1.765185,3.9536 3.953593,3.9536 2.188408,0 3.953594,-1.7652 3.953594,-3.9536 0,-2.1884 -1.765186,-3.9742 -3.953594,-3.9742 z m 0,1.8422 c 1.175861,0 2.132043,0.9562 2.132043,2.132 0,1.1759 -0.956182,2.1114 -2.132043,2.1114 -1.175861,0 -2.132043,-0.9355 -2.132043,-2.1114 0,-1.1758 0.956182,-2.132 2.132043,-2.132 z"
       id="path3755-0" />
    <rect
       style="color:#000000;fill:none;stroke:#ffffff;stroke-width:0.62537313;stroke-miterlimit:4;stroke-opacity:0;stroke-dasharray:none;marker:none;visibility:visible;display:inline;overflow:visible;enable-background:accumulate"
       id="rect3843"
       width="28.078009"
       height="36.772579"
       x="9.943862"
       y="1010.0026"
       ry="5.6235719" />
    <rect
       style="color:#000000;fill:none;stroke:#dfdbd2;stroke-width:1.72997689;stroke-miterlimit:4;stroke-opacity:1;stroke-dasharray:none;marker:none;visibility:visible;display:inline;overflow:visible;enable-background:accumulate"
       id="rect3954"
       width="32.670025"
       height="41.598595"
       x="7.5042739"
       y="1007.813"
       ry="7.2007275" />
  </g>
</svg>
